<svg xmlns="http://www.w3.org/2000/svg" xmlns:xlink="http://www.w3.org/1999/xlink" xmlns:s="https://github.com/nturley/netlistsvg" width="398" height="216">
  <style>svg {
    stroke:#000;
    fill:none;
  }
  text {
    fill:#000;
    stroke:none;
    font-size:10px;
    font-weight: bold;
    font-family: "Courier New", monospace;
  }
  .nodelabel {
    text-anchor: middle;
  }
  .inputPortLabel {
    text-anchor: end;
  }
  .splitjoinBody {
    fill:#000;
  }</style>
  <g s:type="add" transform="translate(340,69.5)" s:width="25" s:height="25" id="cell_$add$tt_um_soundgen.v:38$3">
    <s:alias val="$add"/>
    <circle r="12.5" cx="12.5" cy="12.5" class="cell_$add$tt_um_soundgen.v:38$3"/>
    <line x1="7.5" x2="17.5" y1="12.5" y2="12.5" class="cell_$add$tt_um_soundgen.v:38$3"/>
    <line x1="12.5" x2="12.5" y1="7.5" y2="17.5" class="cell_$add$tt_um_soundgen.v:38$3"/>
    <g s:x="3" s:y="5" s:pid="A"/>
    <g s:x="3" s:y="20" s:pid="B"/>
    <g s:x="25" s:y="12.5" s:pid="Y"/>
  </g>
  <g s:type="generic" transform="translate(102,64)" s:width="30" s:height="40" id="cell_$auto$ff.cc:266:slice$8">
    <text x="15" y="-4" class="nodelabel cell_$auto$ff.cc:266:slice$8" s:attribute="ref">$sdff</text>
    <rect width="30" height="60" s:generic="body" class="cell_$auto$ff.cc:266:slice$8"/>
    <g transform="translate(0,10)" s:x="0" s:y="10" s:pid="in0" id="port_$auto$ff.cc:266:slice$8~CLK">
      <text x="-3" y="-4" class="inputPortLabel cell_$auto$ff.cc:266:slice$8">CLK</text>
    </g>
    <g transform="translate(0,30)" s:x="0" s:y="10" s:pid="in0" id="port_$auto$ff.cc:266:slice$8~D">
      <text x="-3" y="-4" class="inputPortLabel cell_$auto$ff.cc:266:slice$8">D</text>
    </g>
    <g transform="translate(0,50)" s:x="0" s:y="10" s:pid="in0" id="port_$auto$ff.cc:266:slice$8~SRST">
      <text x="-3" y="-4" class="inputPortLabel cell_$auto$ff.cc:266:slice$8">SRST</text>
    </g>
    <g transform="translate(30,10)" s:x="30" s:y="10" s:pid="out0" id="port_$auto$ff.cc:266:slice$8~Q">
      <text x="5" y="-4" style="fill:#000; stroke:none" class="cell_$auto$ff.cc:266:slice$8">Q</text>
    </g>
  </g>
  <g s:type="inputExt" transform="translate(12,22)" s:width="30" s:height="20" id="cell_ui_in">
    <text x="15" y="-4" class="nodelabel cell_ui_in" s:attribute="ref">ui_in</text>
    <s:alias val="$_inputExt_"/>
    <path d="M0,0 L0,20 L15,20 L30,10 L15,0 Z" class="cell_ui_in"/>
    <g s:x="28" s:y="10" s:pid="Y"/>
  </g>
  <g s:type="outputExt" transform="translate(340,163)" s:width="30" s:height="20" id="cell_uo_out">
    <text x="15" y="-4" class="nodelabel cell_uo_out" s:attribute="ref">uo_out</text>
    <s:alias val="$_outputExt_"/>
    <path d="M30,0 L30,20 L15,20 L0,10 L15,0 Z" class="cell_uo_out"/>
    <g s:x="0" s:y="10" s:pid="A"/>
  </g>
  <g s:type="inputExt" transform="translate(96,22)" s:width="30" s:height="20" id="cell_uio_in">
    <text x="15" y="-4" class="nodelabel cell_uio_in" s:attribute="ref">uio_in</text>
    <s:alias val="$_inputExt_"/>
    <path d="M0,0 L0,20 L15,20 L30,10 L15,0 Z" class="cell_uio_in"/>
    <g s:x="28" s:y="10" s:pid="Y"/>
  </g>
  <g s:type="outputExt" transform="translate(322,22)" s:width="30" s:height="20" id="cell_uio_out">
    <text x="15" y="-4" class="nodelabel cell_uio_out" s:attribute="ref">uio_out</text>
    <s:alias val="$_outputExt_"/>
    <path d="M30,0 L30,20 L15,20 L0,10 L15,0 Z" class="cell_uio_out"/>
    <g s:x="0" s:y="10" s:pid="A"/>
  </g>
  <g s:type="outputExt" transform="translate(209,22)" s:width="30" s:height="20" id="cell_uio_oe">
    <text x="15" y="-4" class="nodelabel cell_uio_oe" s:attribute="ref">uio_oe</text>
    <s:alias val="$_outputExt_"/>
    <path d="M30,0 L30,20 L15,20 L0,10 L15,0 Z" class="cell_uio_oe"/>
    <g s:x="0" s:y="10" s:pid="A"/>
  </g>
  <g s:type="inputExt" transform="translate(54,22)" s:width="30" s:height="20" id="cell_ena">
    <text x="15" y="-4" class="nodelabel cell_ena" s:attribute="ref">ena</text>
    <s:alias val="$_inputExt_"/>
    <path d="M0,0 L0,20 L15,20 L30,10 L15,0 Z" class="cell_ena"/>
    <g s:x="28" s:y="10" s:pid="Y"/>
  </g>
  <g s:type="inputExt" transform="translate(12,64.5)" s:width="30" s:height="20" id="cell_clk">
    <text x="15" y="-4" class="nodelabel cell_clk" s:attribute="ref">clk</text>
    <s:alias val="$_inputExt_"/>
    <path d="M0,0 L0,20 L15,20 L30,10 L15,0 Z" class="cell_clk"/>
    <g s:x="28" s:y="10" s:pid="Y"/>
  </g>
  <g s:type="inputExt" transform="translate(12,129.5)" s:width="30" s:height="20" id="cell_rst_n">
    <text x="15" y="-4" class="nodelabel cell_rst_n" s:attribute="ref">rst_n</text>
    <s:alias val="$_inputExt_"/>
    <path d="M0,0 L0,20 L15,20 L30,10 L15,0 Z" class="cell_rst_n"/>
    <g s:x="28" s:y="10" s:pid="Y"/>
  </g>
  <g s:type="constant" transform="translate(275,95.5)" s:width="30" s:height="20" id="cell_1">
    <text x="15" y="-4" class="nodelabel cell_1" s:attribute="ref">1</text>
    <s:alias val="$_constant_"/>
    <rect width="30" height="20" class="cell_1"/>
    <g s:x="30" s:y="10" s:pid="Y"/>
  </g>
  <g s:type="constant" transform="translate(102,173)" s:width="30" s:height="20" id="cell_0000">
    <text x="15" y="-4" class="nodelabel cell_0000" s:attribute="ref">0x0</text>
    <s:alias val="$_constant_"/>
    <rect width="30" height="20" class="cell_0000"/>
    <g s:x="30" s:y="10" s:pid="Y"/>
  </g>
  <g s:type="constant" transform="translate(257,22)" s:width="30" s:height="20" id="cell_00000000">
    <text x="15" y="-4" class="nodelabel cell_00000000" s:attribute="ref">0x0</text>
    <s:alias val="$_constant_"/>
    <rect width="30" height="20" class="cell_00000000"/>
    <g s:x="30" s:y="10" s:pid="Y"/>
  </g>
  <g s:type="constant" transform="translate(144,22)" s:width="30" s:height="20" id="cell_11111111">
    <text x="15" y="-4" class="nodelabel cell_11111111" s:attribute="ref">0xff</text>
    <s:alias val="$_constant_"/>
    <rect width="30" height="20" class="cell_11111111"/>
    <g s:x="30" s:y="10" s:pid="Y"/>
  </g>
  <g s:type="join" transform="translate(294,152.5)" s:width="4" s:height="40" id="cell_$join$,10,11,12,13,30,31,32,33,">
    <rect width="5" height="40" class="splitjoinBody" s:generic="body"/>
    <s:alias val="$_join_"/>
    <g s:x="5" s:y="20" s:pid="out"/>
    <g transform="translate(0,10)" s:x="0" s:y="10" s:pid="in0">
      <text x="-3" y="-4" class="inputPortLabel">0:3</text>
    </g>
    <g transform="translate(0,30)" s:x="0" s:y="10" s:pid="in0">
      <text x="-3" y="-4" class="inputPortLabel">4:7</text>
    </g>
  </g>
  <line x1="133" x2="343" y1="74.5" y2="74.5" class="net_10,11,12,13"/>
  <line x1="133" x2="250" y1="74.5" y2="74.5" class="net_10,11,12,13"/>
  <line x1="250" x2="250" y1="74.5" y2="163" class="net_10,11,12,13"/>
  <circle cx="250" cy="74.5" r="2" style="fill:#000" class="net_10,11,12,13"/>
  <line x1="250" x2="294" y1="163" y2="163" class="net_10,11,12,13"/>
  <line x1="305" x2="315" y1="105.5" y2="105.5" class="net_29"/>
  <line x1="315" x2="315" y1="105.5" y2="89.5" class="net_29"/>
  <line x1="315" x2="343" y1="89.5" y2="89.5" class="net_29"/>
  <line x1="40" x2="102" y1="74.5" y2="74.5" class="net_23"/>
  <line x1="365" x2="386" y1="82" y2="82" class="net_25,26,27,28"/>
  <line x1="386" x2="386" y1="82" y2="203" class="net_25,26,27,28"/>
  <line x1="386" x2="52" y1="203" y2="203" class="net_25,26,27,28"/>
  <line x1="52" x2="52" y1="203" y2="94.5" class="net_25,26,27,28"/>
  <line x1="52" x2="102" y1="94.5" y2="94.5" class="net_25,26,27,28"/>
  <line x1="40" x2="62" y1="139.5" y2="139.5" class="net_24"/>
  <line x1="62" x2="62" y1="139.5" y2="114.5" class="net_24"/>
  <line x1="62" x2="102" y1="114.5" y2="114.5" class="net_24"/>
  <line x1="300" x2="340" y1="173" y2="173" class="net_10,11,12,13,30,31,32,33"/>
  <line x1="287" x2="322" y1="32" y2="32" class="net_34,35,36,37,38,39,40,41"/>
  <line x1="174" x2="209" y1="32" y2="32" class="net_42,43,44,45,46,47,48,49"/>
  <line x1="132" x2="294" y1="183" y2="183" class="net_30,31,32,33"/>
</svg>
